ply
format ascii 1.0
comment Generated by the CGAL library
element vertex 1218
property double x
property double y
property double z
end_header
-5.98067 -5.94364 -5.99988 
6.04799 -5.9415 -5.91913 
-5.91772 -5.9104 -4.96497 
6.08589 -5.98259 -4.92534 
-5.9696 -5.94865 -3.92895 
6.03645 -5.99086 -3.9985 
-5.90115 -5.98341 -2.98527 
6.00047 -5.98809 -2.95543 
-5.94683 -5.96221 -1.99911 
6.06072 -5.93982 -1.94288 
-5.95492 -5.9337 -0.983377 
6.06077 -5.9943 -0.964788 
-5.94801 -5.91974 0.0783319 
6.07267 -5.9124 0.030195 
-5.94606 -5.90743 1.09559 
6.02353 -5.95379 1.01423 
-5.92203 -5.97904 2.08622 
6.09997 -5.90032 2.08437 
-5.97338 -5.96076 3.06115 
6.00237 -5.91599 3.02973 
-5.93228 -5.99074 4.03759 
6.09188 -5.99912 4.00562 
-5.94121 -5.97271 5.02759 
6.07265 -5.91624 5.06912 
-5.92563 -5.97946 6.04849 
6.09492 -5.9542 6.04685 
-5.9401 -4.98917 -5.92556 
6.0609 -4.9265 -5.96148 
-5.98484 -4.96387 -4.94276 
6.08029 -4.95748 -4.97749 
-5.92485 -4.901 -3.94829 
6.06573 -4.9831 -3.96544 
-5.93002 -4.99365 -2.95081 
6.09496 -4.98525 -2.94952 
-5.93071 -4.90949 -1.98584 
6.00704 -4.95734 -1.9697 
-5.98468 -4.93168 -0.903339 
6.05821 -4.91783 -0.912275 
-5.91828 -4.98221 0.0191351 
6.05039 -4.98444 0.0475265 
-5.97204 -4.95944 1.0732 
6.07559 -4.93178 1.05687 
-5.9877 -4.95247 2.07219 
6.00351 -4.91653 2.03678 
-5.95738 -4.9337 3.0517 
6.09214 -4.90507 3.01047 
-5.95283 -4.9654 4.05495 
6.03169 -4.9153 4.0375 
-5.9017 -4.97281 5.04561 
6.05673 -4.92608 5.02978 
-5.91606 -4.92387 6.0196 
6.08902 -4.94991 6.03977 
-5.94274 -3.90054 -5.99725 
6.01941 -3.94687 -5.99495 
-5.93424 -3.93732 -4.9157 
6.01233 -3.91578 -4.98022 
-5.96859 -3.92569 -3.98901 
6.03363 -3.97139 -3.90589 
-5.91654 -3.92669 -2.98597 
6.07472 -3.93998 -2.9292 
-5.99984 -3.98555 -1.97473 
6.08526 -3.91938 -1.9939 
-5.94468 -3.98844 -0.978942 
6.04545 -3.98862 -0.998575 
-5.94566 -3.93139 0.075222 
6.02019 -3.95633 0.00738853 
-5.95633 -3.97096 1.06962 
6.05326 -3.94221 1.02324 
-5.94959 -3.98398 2.06287 
6.09248 -3.93042 2.0963 
-5.98216 -3.96641 3.01899 
6.0998 -3.95426 3.09952 
-5.99056 -3.93748 4.00975 
6.00484 -3.90685 4.04377 
-5.97727 -3.971 5.08946 
6.0202 -3.95893 5.07691 
-5.95484 -3.93959 6.06281 
6.06347 -3.94022 6.04664 
-5.93752 -2.91712 -5.91452 
6.03751 -2.94342 -5.92791 
-5.94449 -2.92621 -4.98157 
6.01889 -2.97571 -4.90949 
-5.94154 -2.93015 -3.93953 
6.00804 -2.95055 -3.96487 
-5.93796 -2.9388 -2.92593 
6.01491 -2.91955 -2.93089 
-5.90884 -2.91323 -1.9424 
6.00432 -2.92723 -1.93853 
-5.9685 -2.90235 -0.933222 
6.01739 -2.96942 -0.94308 
-5.91488 -2.9131 0.0108554 
6.03269 -2.98451 0.0744316 
-5.9359 -2.99234 1.00793 
6.04483 -2.94549 1.082 
-5.95344 -2.97013 2.0409 
6.0323 -2.98473 2.05012 
-5.91733 -2.96861 3.0738 
6.0725 -2.91267 3.09591 
-5.98728 -2.9056 4.03001 
6.05246 -2.9215 4.00657 
-5.99277 -2.90439 5.06096 
6.03221 -2.93461 5.08756 
-5.97729 -2.94949 6.01048 
6.05512 -2.908 6.02903 
-5.95075 -1.98855 -5.93372 
6.07934 -1.95032 -5.96209 
-5.93118 -1.96176 -4.94907 
6.03952 -1.93937 -4.94678 
-5.98994 -1.92921 -3.99941 
6.04915 -1.91368 -3.93769 
-5.96199 -1.95031 -2.92527 
6.03571 -1.94472 -2.92146 
-5.98234 -1.93692 -1.90443 
6.07433 -1.98684 -1.96258 
-5.99722 -1.9388 -0.904828 
6.06392 -1.99441 -0.967016 
-5.91357 -1.91529 0.0131626 
6.0854 -1.92784 0.0596881 
-5.92921 -1.98735 1.00147 
6.0066 -1.97824 1.06171 
-5.9659 -1.93759 2.01689 
6.0661 -1.96324 2.03194 
-5.94735 -1.91931 3.08024 
6.09006 -1.92018 3.06111 
-5.95976 -1.93698 4.01448 
6.08552 -1.98635 4.02537 
-5.94267 -1.95722 5.00662 
6.02256 -1.94519 5.03023 
-5.9192 -1.98894 6.03114 
6.07881 -1.97158 6.01347 
-5.92562 -0.921036 -5.91048 
6.08567 -0.963887 -5.93848 
-5.97706 -0.913642 -4.97715 
6.09848 -0.945759 -4.97505 
-5.94753 -0.991858 -3.99462 
6.02588 -0.990533 -3.95732 
-5.98534 -0.976724 -2.91085 
6.00801 -0.906836 -2.98749 
-5.96636 -0.994128 -1.99529 
6.04328 -0.96014 -1.90853 
-5.94658 -0.916282 -0.905383 
6.03977 -0.930647 -0.91579 
-5.94744 -0.999567 0.0259163 
6.02411 -0.960131 0.0954802 
-5.9316 -0.974487 1.05856 
6.08902 -0.95645 1.09453 
-5.93985 -0.905902 2.00072 
6.01424 -0.942332 2.07862 
-5.99957 -0.961699 3.02223 
6.06599 -0.991775 3.04179 
-5.91889 -0.993515 4.08551 
6.08027 -0.930851 4.06621 
-5.98572 -0.931437 5.05301 
6.07777 -0.92721 5.06895 
-5.93555 -0.913132 6.00311 
6.0552 -0.991455 6.07066 
-5.9725 0.00587787 -5.90521 
6.062 0.098178 -5.98548 
-5.96325 0.0922483 -4.97078 
6.01559 0.0218635 -4.93055 
-5.90977 0.0521439 -3.97595 
6.04417 0.0902646 -3.98936 
-5.98282 0.0782098 -2.99199 
6.08704 0.0775872 -2.90256 
-5.99962 0.0456618 -1.97894 
6.04047 0.0114048 -1.92494 
-5.99614 0.0992615 -0.968886 
6.02477 0.0189276 -0.974792 
-5.91146 0.0620319 0.0153508 
6.07797 0.0195654 0.0939085 
-5.90909 0.0656758 1.06456 
6.06642 0.0921293 1.04555 
-5.94305 0.0636341 2.01508 
6.05406 0.0943022 2.0422 
-5.97447 0.0536454 3.05786 
6.00366 0.0350261 3.0397 
-5.99297 0.0196509 4.07952 
6.00709 0.0590747 4.03894 
-5.93557 0.0155889 5.01977 
6.06973 0.0604297 5.04543 
-5.96035 0.0684469 6.04413 
6.01996 0.0592212 6.08357 
-5.96083 1.0876 -5.90505 
6.08957 1.01853 -5.90125 
-5.93727 1.04421 -4.94255 
6.02856 1.00496 -4.92915 
-5.91047 1.04076 -3.97398 
6.08961 1.07284 -3.92898 
-5.90961 1.03974 -2.96064 
6.05706 1.03881 -2.96914 
-5.92546 1.07337 -1.96464 
6.01393 1.07394 -1.92636 
-5.93196 1.02726 -0.979983 
6.05177 1.03678 -0.908887 
-5.97969 1.09074 0.0109378 
6.04385 1.06548 0.051796 
-5.99204 1.00904 1.06876 
6.03551 1.00278 1.00758 
-5.98573 1.06973 2.03072 
6.06757 1.00678 2.03948 
-5.9306 1.01987 3.07249 
6.0544 1.06549 3.06157 
-5.99504 1.05454 4.00983 
6.097 1.0464 4.09746 
-5.93201 1.0531 5.07279 
6.03886 1.03721 5.06928 
-5.98304 1.08098 6.005 
6.07845 1.03106 6.00608 
-5.95153 2.03219 -5.97875 
6.05079 2.04399 -5.99908 
-5.95989 2.07585 -4.93941 
6.09423 2.08426 -4.96502 
-5.99465 2.09973 -3.93767 
6.03868 2.08636 -3.94371 
-5.99733 2.02842 -2.96936 
6.00186 2.03912 -2.93874 
-5.91421 2.04557 -1.9969 
6.07273 2.04019 -1.90632 
-5.91246 2.08084 -0.938841 
6.0079 2.0595 -0.94174 
-5.94094 2.04622 0.0793176 
6.08161 2.05692 0.0589435 
-5.99898 2.03436 1.06728 
6.02321 2.03416 1.02673 
-5.91301 2.03717 2.0771 
6.06289 2.07256 2.01169 
-5.94644 2.0183 3.08939 
6.09652 2.07801 3.0902 
-5.92026 2.09015 4.01974 
6.08903 2.08488 4.09534 
-5.93831 2.01855 5.06287 
6.07322 2.02506 5.0265 
-5.92861 2.01709 6.07881 
6.08065 2.00815 6.04809 
-5.96925 3.01246 -5.91447 
6.0762 3.0473 -5.94267 
-5.9005 3.07278 -4.98081 
6.06916 3.06476 -4.99847 
-5.9725 3.00721 -3.98259 
6.05567 3.08389 -3.93234 
-5.97675 3.07795 -2.96288 
6.02046 3.02317 -2.93618 
-5.99771 3.02817 -1.9029 
6.0047 3.01518 -1.92308 
-5.93561 3.03486 -0.999075 
6.04165 3.04146 -0.965676 
-5.93007 3.05452 0.00906705 
6.08762 3.06575 0.0337992 
-5.9946 3.057 1.05355 
6.04268 3.026 1.04658 
-5.99126 3.04866 2.08633 
6.07785 3.07094 2.05658 
-5.9707 3.08506 3.08642 
6.07469 3.06449 3.08644 
-5.91281 3.07656 4.08286 
6.0522 3.09125 4.09083 
-5.9646 3.01076 5.04402 
6.01698 3.04277 5.08231 
-5.92264 3.06575 6.00009 
6.03857 3.00898 6.00637 
-5.98459 4.08076 -5.93161 
6.03461 4.00485 -5.98571 
-5.93524 4.09784 -4.99814 
6.06375 4.09141 -4.99463 
-5.97574 4.00211 -3.95683 
6.07819 4.0654 -3.96081 
-5.98616 4.0826 -2.99772 
6.09835 4.05504 -2.93657 
-5.96993 4.02148 -1.95366 
6.04806 4.03425 -1.92178 
-5.90156 4.01025 -0.939198 
6.04564 4.01509 -0.924418 
-5.92245 4.09987 0.0711631 
6.09461 4.06212 0.0641652 
-5.94328 4.02898 1.06882 
6.07124 4.05482 1.02904 
-5.95074 4.05467 2.02464 
6.07652 4.06698 2.09521 
-5.92012 4.04458 3.06234 
6.02046 4.09889 3.07455 
-5.94087 4.09098 4.06295 
6.04894 4.05055 4.09184 
-5.90596 4.08893 5.04497 
6.0203 4.0252 5.01829 
-5.93749 4.09411 6.07305 
6.00345 4.06413 6.00414 
-5.95537 5.05445 -5.94436 
6.01277 5.0996 -5.99386 
-5.98272 5.00504 -4.93991 
6.0316 5.03324 -4.93398 
-5.95725 5.04105 -3.93464 
6.01664 5.06785 -3.97784 
-5.91973 5.05076 -2.95025 
6.03395 5.00045 -2.95649 
-5.91727 5.01286 -1.96241 
6.06433 5.08911 -1.92667 
-5.9266 5.05145 -0.934941 
6.04658 5.09571 -0.926283 
-5.90953 5.01122 0.0363262 
6.01087 5.04548 0.0821223 
-5.99609 5.07614 1.08694 
6.00677 5.09361 1.04167 
-5.98831 5.02113 2.01649 
6.06183 5.01184 2.05911 
-5.92684 5.06903 3.05801 
6.02985 5.06697 3.09156 
-5.90025 5.03782 4.08089 
6.01706 5.02044 4.07725 
-5.9419 5.01812 5.03883 
6.01903 5.09601 5.01956 
-5.98792 5.0304 6.03817 
6.07712 5.00462 6.01982 
-5.99982 6.0881 -5.9239 
6.08015 6.04264 -5.95514 
-5.92506 6.04949 -4.95387 
6.00927 6.05594 -4.97615 
-5.9143 6.08938 -3.9078 
6.0632 6.04909 -3.99404 
-5.97443 6.07561 -2.92528 
6.01996 6.0792 -2.90901 
-5.94778 6.00512 -1.94472 
6.0024 6.07042 -1.92096 
-5.90858 6.05534 -0.926826 
6.03054 6.07969 -0.912445 
-5.99474 6.04819 0.039494 
6.07686 6.00009 0.0651967 
-5.98452 6.02197 1.07562 
6.00327 6.06706 1.00575 
-5.92019 6.06979 2.03459 
6.06355 6.09817 2.04363 
-5.91256 6.0477 3.02953 
6.01432 6.0101 3.00793 
-5.96913 6.0918 4.0143 
6.00466 6.08138 4.03738 
-5.91021 6.024 5.08142 
6.0208 6.02694 5.02565 
-5.91252 6.08462 6.02294 
6.06093 6.08448 6.08877 
-4.98162 -5.98265 -5.99591 
-4.98149 -5.95507 6.03559 
-4.94537 -4.9377 -5.91055 
-4.92694 -4.94774 6.09117 
-4.91326 -3.90307 -5.90007 
-4.96256 -3.98533 6.08402 
-4.90262 -2.9829 -5.97156 
-4.99691 -2.92834 6.07418 
-4.92641 -1.91873 -5.9355 
-4.92811 -1.98754 6.08182 
-4.90846 -0.935017 -5.96249 
-4.92265 -0.996783 6.08897 
-4.97714 0.000756859 -5.95511 
-4.9081 0.015659 6.04185 
-4.92455 1.02429 -5.94983 
-4.99679 1.02135 6.09065 
-4.94434 2.02282 -5.92288 
-4.96684 2.0852 6.08064 
-4.91306 3.09918 -5.94611 
-4.91872 3.02277 6.06469 
-4.9965 4.03669 -5.9629 
-4.98802 4.03979 6.05613 
-4.97985 5.0899 -5.96751 
-4.91507 5.01251 6.09402 
-4.97779 6.04456 -5.9106 
-4.9376 6.05601 6.06348 
-3.91359 -5.99835 -5.95763 
-3.9708 -5.97326 6.01396 
-3.90412 -4.94386 -5.93183 
-3.95773 -4.92118 6.06072 
-3.98642 -3.92605 -5.91816 
-3.9993 -3.99799 6.05165 
-3.90979 -2.96661 -5.92517 
-3.99495 -2.92321 6.04623 
-3.93176 -1.99758 -5.9369 
-3.92936 -1.94996 6.09691 
-3.93534 -0.917765 -5.97341 
-3.91558 -0.973638 6.05972 
-3.96484 0.0748161 -5.95399 
-3.93735 0.0476547 6.00145 
-3.99724 1.03836 -5.95961 
-3.91161 1.05968 6.02888 
-3.9617 2.09315 -5.95678 
-3.90258 2.00101 6.05331 
-3.93004 3.04374 -5.91348 
-3.95015 3.06023 6.0333 
-3.96218 4.0039 -5.94404 
-3.91405 4.09373 6.0233 
-3.9416 5.06088 -5.90359 
-3.96947 5.0407 6.00764 
-3.91252 6.00801 -5.95014 
-3.90671 6.07815 6.03043 
-2.97207 -5.97838 -5.94116 
-2.97499 -5.91256 6.05607 
-2.91334 -4.92729 -5.96986 
-2.95532 -4.98093 6.02311 
-2.99712 -3.94257 -5.91097 
-2.93808 -3.99408 6.09952 
-2.98839 -2.98302 -5.97431 
-2.90402 -2.95051 6.02315 
-2.96623 -1.99204 -5.99507 
-2.95094 -1.94845 6.02797 
-2.93989 -0.907529 -5.95877 
-2.95983 -0.952425 6.02922 
-2.91651 0.0548357 -5.90487 
-2.94071 0.080166 6.07944 
-2.90608 1.03181 -5.91299 
-2.92812 1.09433 6.02679 
-2.95271 2.07749 -5.98724 
-2.99584 2.00267 6.01759 
-2.98639 3.08623 -5.95452 
-2.91815 3.02128 6.00145 
-2.93415 4.07797 -5.92028 
-2.90785 4.07814 6.02987 
-2.95012 5.02426 -5.91579 
-2.99691 5.00757 6.0023 
-2.95902 6.07153 -5.96438 
-2.98179 6.02979 6.01804 
-1.99418 -5.98653 -5.92551 
-1.91933 -5.96411 6.05256 
-1.98682 -4.91001 -5.98412 
-1.91819 -4.98186 6.00292 
-1.96531 -3.94293 -5.97508 
-1.91292 -3.93351 6.05399 
-1.98948 -2.90547 -5.90675 
-1.91997 -2.9442 6.01532 
-1.91277 -1.99275 -5.91049 
-1.94512 -1.96117 6.08224 
-1.97186 -0.954906 -5.9328 
-1.9272 -0.901785 6.09495 
-1.9868 0.0272378 -5.94052 
-1.95126 0.0600513 6.01979 
-1.95216 1.02299 -5.96447 
-1.93289 1.09481 6.06918 
-1.94864 2.02375 -5.90174 
-1.95156 2.0898 6.02358 
-1.94292 3.05375 -5.96735 
-1.98308 3.03482 6.03365 
-1.90772 4.02193 -5.97098 
-1.93496 4.0807 6.07397 
-1.92331 5.02701 -5.93133 
-1.91409 5.07218 6.00644 
-1.95157 6.00444 -5.96584 
-1.93815 6.08382 6.00208 
-0.943132 -5.93959 -5.94594 
-0.930326 -5.936 6.07774 
-0.984201 -4.9132 -5.92401 
-0.997858 -4.92135 6.04235 
-0.94937 -3.99579 -5.95616 
-0.975515 -3.99317 6.02693 
-0.938447 -2.94935 -5.90179 
-0.904447 -2.96325 6.0071 
-0.975811 -1.96625 -5.91399 
-0.900729 -1.9949 6.02895 
-0.977987 -0.993109 -5.98275 
-0.935038 -0.921314 6.03009 
-0.986352 0.0262764 -5.99163 
-0.982174 0.0562578 6.02175 
-0.954628 1.01069 -5.93677 
-0.994259 1.03338 6.07588 
-0.912674 2.06943 -5.97175 
-0.991879 2.08685 6.05676 
-0.9365 3.09997 -5.92046 
-0.940687 3.05948 6.06189 
-0.976849 4.09789 -5.98058 
-0.974487 4.02391 6.00423 
-0.972753 5.07949 -5.95932 
-0.927244 5.03794 6.09001 
-0.939543 6.00529 -5.97935 
-0.933189 6.03612 6.0354 
0.0895779 -5.97764 -5.9024 
0.066512 -5.90465 6.0347 
0.0355449 -4.97176 -5.97983 
0.0219977 -4.9709 6.0532 
0.0709342 -3.98933 -5.99004 
0.0819147 -3.93281 6.08438 
0.0604633 -2.95087 -5.99942 
0.0605823 -2.97094 6.09353 
0.0912229 -1.91262 -5.92531 
0.030488 -1.93941 6.08301 
0.0542619 -0.984988 -5.92158 
0.0993194 -0.960537 6.0689 
0.00274361 0.0411603 -5.98981 
0.0169012 0.0258889 6.06874 
0.0862209 1.0189 -5.97714 
0.048323 1.00476 6.07633 
0.00849941 2.09612 -5.99438 
0.0573901 2.09626 6.05655 
0.040315 3.04087 -5.91213 
0.0823359 3.06585 6.04135 
0.000222785 4.02831 -5.90548 
0.0656056 4.00494 6.06163 
0.0603961 5.09545 -5.95781 
0.0340556 5.04144 6.02009 
0.000485244 6.08084 -5.93769 
0.0276864 6.03944 6.01053 
1.08535 -5.91758 -5.96832 
1.05647 -5.98023 6.03115 
1.04332 -4.90049 -5.95309 
1.03849 -4.95812 6.03685 
1.03374 -3.91223 -5.94196 
1.05091 -3.9049 6.03934 
1.07768 -2.93917 -5.95814 
1.02079 -2.98488 6.00837 
1.04718 -1.96827 -5.99127 
1.00793 -1.96672 6.06291 
1.02807 -0.985717 -5.93855 
1.09944 -0.956093 6.0825 
1.0519 0.0107334 -5.9779 
1.05763 0.000735496 6.02646 
1.09692 1.01075 -5.92294 
1.05217 1.0904 6.03694 
1.04785 2.03026 -5.97773 
1.07647 2.04144 6.03106 
1.04275 3.03891 -5.91584 
1.00914 3.07349 6.07242 
1.0847 4.07531 -5.99183 
1.0475 4.03596 6.06378 
1.01884 5.04153 -5.99056 
1.02293 5.09134 6.03431 
1.03415 6.01543 -5.96897 
1.02059 6.02723 6.01823 
2.00654 -5.96647 -5.98275 
2.08093 -5.90363 6.05019 
2.01793 -4.9087 -5.95535 
2.06992 -4.95279 6.04819 
2.02774 -3.90633 -5.97514 
2.08196 -3.91776 6.02995 
2.00072 -2.92049 -5.93701 
2.0953 -2.97105 6.0261 
2.07075 -1.94826 -5.91405 
2.04913 -1.9079 6.02562 
2.00767 -0.917402 -5.99065 
2.06433 -0.961614 6.02826 
2.01407 0.0431532 -5.94849 
2.00052 0.00746178 6.0975 
2.07553 1.04117 -5.90852 
2.04231 1.01017 6.01877 
2.08242 2.05274 -5.93221 
2.04995 2.02715 6.08372 
2.09708 3.0149 -5.91296 
2.00667 3.02207 6.05384 
2.01929 4.01977 -5.97954 
2.05935 4.09568 6.01995 
2.06798 5.02944 -5.92612 
2.09284 5.09213 6.07861 
2.01054 6.0259 -5.91557 
2.01483 6.09038 6.00619 
3.09567 -5.96406 -5.91072 
3.06846 -5.96685 6.03816 
3.04333 -4.96199 -5.91125 
3.04828 -4.97329 6.06746 
3.07941 -3.91979 -5.94722 
3.08278 -3.95133 6.07463 
3.03472 -2.97212 -5.9441 
3.07629 -2.90887 6.00541 
3.02112 -1.97176 -5.96315 
3.08816 -1.99499 6.03246 
3.01449 -0.959618 -5.97512 
3.07837 -0.939189 6.08753 
3.07618 0.0451704 -5.98032 
3.08046 0.0636464 6.04333 
3.09632 1.03227 -5.98256 
3.08629 1.01975 6.07094 
3.0036 2.07432 -5.99527 
3.05527 2.00824 6.01308 
3.02189 3.0533 -5.9431 
3.00645 3.03046 6.00772 
3.02517 4.01337 -5.95887 
3.02687 4.05088 6.08206 
3.01217 5.09165 -5.90121 
3.04709 5.0707 6.02844 
3.05251 6.03446 -5.97053 
3.00673 6.05172 6.08111 
4.01036 -5.94456 -5.91708 
4.07231 -5.90533 6.05096 
4.09189 -4.95487 -5.95261 
4.08844 -4.96347 6.05488 
4.05074 -3.98775 -5.93403 
4.05465 -3.97202 6.01124 
4.08581 -2.96308 -5.92087 
4.03597 -2.95361 6.07443 
4.0379 -1.94141 -5.95579 
4.04826 -1.94424 6.0632 
4.00097 -0.981429 -5.91633 
4.02218 -0.995938 6.01093 
4.07076 0.0410291 -5.9744 
4.05441 0.0133061 6.04427 
4.02183 1.08066 -5.91432 
4.01432 1.03134 6.09238 
4.09556 2.00103 -5.93931 
4.00124 2.03869 6.05372 
4.05925 3.08857 -5.97629 
4.05352 3.00165 6.01526 
4.02245 4.06527 -5.90833 
4.00971 4.09658 6.04056 
4.03353 5.05061 -5.96004 
4.02508 5.06254 6.03284 
4.08987 6.05335 -5.971 
4.06746 6.03282 6.04781 
5.04128 -5.94172 -5.95397 
5.06647 -5.9879 6.09223 
5.01116 -4.97526 -5.98513 
5.08264 -4.93105 6.0102 
5.06534 -3.95463 -5.95093 
5.00992 -3.93601 6.04185 
5.0878 -2.96314 -5.91694 
5.03947 -2.90377 6.052 
5.03741 -1.93694 -5.92743 
5.00639 -1.91474 6.08134 
5.02356 -0.963762 -5.92564 
5.02739 -0.921628 6.0819 
5.01242 0.0174718 -5.94368 
5.02794 0.04138 6.07571 
5.02413 1.05442 -5.9829 
5.0658 1.02251 6.03186 
5.06433 2.06702 -5.93016 
5.09522 2.03295 6.0056 
5.0163 3.03076 -5.96793 
5.09611 3.02764 6.03685 
5.06248 4.02608 -5.97638 
5.0271 4.05828 6.0756 
5.07141 5.03379 -5.92878 
5.06307 5.07006 6.00216 
5.03809 6.07199 -5.98736 
5.05919 6.08641 6.05239 
-4.93282 -5.99692 -4.95048 
-4.94274 6.03496 -4.94465 
-4.99994 -5.99774 -3.92357 
-4.97178 6.07481 -3.9453 
-4.92762 -5.91648 -2.9206 
-4.95944 6.05386 -2.97035 
-4.99033 -5.96106 -1.98982 
-4.93091 6.01618 -1.93318 
-4.91118 -5.92615 -0.932923 
-4.97351 6.05695 -0.924342 
-4.92665 -5.97329 0.0111454 
-4.97851 6.04879 0.0977477 
-4.96515 -5.93871 1.08012 
-4.96263 6.09985 1.04826 
-4.93697 -5.97794 2.0948 
-4.90701 6.01455 2.05757 
-4.99514 -5.93577 3.04579 
-4.99 6.07424 3.06558 
-4.97656 -5.98004 4.06507 
-4.92459 6.09945 4.07321 
-4.91082 -5.94523 5.08933 
-4.92801 6.0616 5.08689 
-3.92438 -5.98481 -4.92689 
-3.93855 6.04047 -4.98472 
-3.9114 -5.917 -3.92832 
-3.93964 6.03948 -3.99363 
-3.92382 -5.95486 -2.95119 
-3.94169 6.03357 -2.94212 
-3.99185 -5.92502 -1.96397 
-3.99555 6.09971 -1.99044 
-3.9585 -5.98918 -0.960332 
-3.9547 6.02697 -0.956609 
-3.93583 -5.97387 0.0224982 
-3.95507 6.0879 0.0893094 
-3.90356 -5.97679 1.04117 
-3.9277 6.03417 1.07394 
-3.91058 -5.93786 2.06034 
-3.98912 6.02356 2.06825 
-3.94321 -5.92845 3.05317 
-3.95416 6.05109 3.00151 
-3.92976 -5.91104 4.09709 
-3.97333 6.01035 4.02458 
-3.99509 -5.93932 5.04663 
-3.90018 6.01166 5.03862 
-2.99956 -5.99592 -4.92601 
-2.92934 6.09564 -4.93197 
-2.93217 -5.98589 -3.92491 
-2.9024 6.0663 -3.93872 
-2.91387 -5.90926 -2.99289 
-2.94248 6.0889 -2.93715 
-2.94261 -5.91014 -1.98478 
-2.93747 6.01755 -1.97371 
-2.91414 -5.93297 -0.916569 
-2.93399 6.0983 -0.955147 
-2.9184 -5.99418 0.0708762 
-2.91646 6.09741 0.074691 
-2.97945 -5.98823 1.03141 
-2.91575 6.09478 1.02918 
-2.91338 -5.97841 2.02498 
-2.90713 6.02057 2.04309 
-2.96253 -5.961 3.07533 
-2.90589 6.06307 3.0558 
-2.96113 -5.9264 4.07363 
-2.9372 6.09802 4.05502 
-2.93727 -5.957 5.03277 
-2.93316 6.04901 5.06957 
-1.99348 -5.98953 -4.97317 
-1.98197 6.0454 -4.98602 
-1.97339 -5.91432 -3.93535 
-1.90832 6.06249 -3.91824 
-1.95029 -5.97458 -2.98977 
-1.98904 6.07041 -2.92989 
-1.9039 -5.95182 -1.9628 
-1.99068 6.04545 -1.99012 
-1.92095 -5.9674 -0.947926 
-1.9436 6.07378 -0.917585 
-1.90091 -5.98126 0.00517289 
-1.92786 6.06434 0.0427198 
-1.90847 -5.9157 1.09008 
-1.92725 6.04798 1.0483 
-1.92554 -5.9616 2.07577 
-1.99688 6.03629 2.0274 
-1.95653 -5.92421 3.08223 
-1.97343 6.00825 3.02243 
-1.96738 -5.92327 4.06257 
-1.92481 6.0485 4.02547 
-1.93037 -5.96521 5.05619 
-1.97273 6.04017 5.09671 
-0.939338 -5.94076 -4.91111 
-0.917023 6.08014 -4.96526 
-0.991873 -5.95766 -3.9185 
-0.931132 6.09825 -3.93676 
-0.943272 -5.98157 -2.95007 
-0.971108 6.0862 -2.97616 
-0.959749 -5.91801 -1.90104 
-0.934242 6.03987 -1.96783 
-0.972231 -5.90961 -0.906912 
-0.904773 6.05257 -0.923634 
-0.995209 -5.93576 0.091702 
-0.920753 6.02886 0.0263558 
-0.964809 -5.9713 1.02581 
-0.975662 6.08185 1.09144 
-0.903882 -5.97702 2.03222 
-0.918201 6.09336 2.02455 
-0.977264 -5.94227 3.01034 
-0.92129 6.01914 3.0376 
-0.994583 -5.96908 4.08967 
-0.944151 6.07193 4.0752 
-0.989059 -5.96314 5.05479 
-0.997275 6.07731 5.00689 
0.0144963 -5.96917 -4.96799 
0.0740715 6.03272 -4.94741 
0.0925871 -5.94205 -3.94015 
0.0581286 6.07098 -3.93395 
0.00146184 -5.97053 -2.99282 
0.0579547 6.09974 -2.92278 
0.0134953 -5.95249 -1.96948 
0.0549577 6.01872 -1.94844 
0.0677328 -5.94891 -0.962276 
0.0615802 6.07077 -0.927674 
0.0730644 -5.9043 0.0123356 
0.0498825 6.02279 0.00563677 
0.0456679 -5.90261 1.01337 
0.0774712 6.06122 1.07846 
0.0288766 -5.91606 2.06126 
0.0337809 6.08576 2.0998 
0.096292 -5.98923 3.01573 
0.0113834 6.05844 3.09789 
0.0398236 -5.96691 4.00685 
0.0804559 6.07344 4.04309 
0.0563677 -5.91219 5.05967 
0.0229225 6.02059 5.09073 
1.03204 -5.95606 -4.98209 
1.07837 6.08347 -4.97832 
1.04432 -5.96019 -3.91439 
1.07884 6.00477 -3.90512 
1.0221 -5.94805 -2.96994 
1.01725 6.02897 -2.93313 
1.08428 -5.95277 -1.91278 
1.01593 6.05853 -1.90882 
1.08178 -5.9318 -0.955397 
1.05145 6.09655 -0.901794 
1.05769 -5.99493 0.00879849 
1.06034 6.05927 0.0862514 
1.07886 -5.9717 1.05805 
1.01195 6.08816 1.03872 
1.0418 -5.99423 2.0968 
1.0002 6.03586 2.03439 
1.07819 -5.97884 3.03171 
1.0889 6.00611 3.04908 
1.04452 -5.94314 4.03976 
1.05851 6.05686 4.07066 
1.03752 -5.98045 5.06062 
1.05643 6.09058 5.0776 
2.09482 -5.92011 -4.91879 
2.063 6.01971 -4.92298 
2.08251 -5.91567 -3.94861 
2.06187 6.06906 -3.92708 
2.09828 -5.91216 -2.96035 
2.06001 6.0253 -2.94671 
2.09507 -5.93592 -1.93192 
2.05102 6.02713 -1.94378 
2.01699 -5.9124 -0.979736 
2.06915 6.07221 -0.985098 
2.09965 -5.93779 0.055681 
2.05139 6.05982 0.0999939 
2.08326 -5.99543 1.05252 
2.0257 6.05511 1.08927 
2.08175 -5.90667 2.00053 
2.08545 6.01308 2.00998 
2.00652 -5.92377 3.03816 
2.00751 6.00162 3.03265 
2.02301 -5.99937 4.03698 
2.03547 6.07465 4.05746 
2.0827 -5.98852 5.04394 
2.09343 6.03199 5.03948 
3.08727 -5.94356 -4.94028 
3.03216 6.02364 -4.94152 
3.06554 -5.93732 -3.97659 
3.04996 6.07604 -3.93422 
3.04199 -5.98245 -2.94885 
3.0887 6.09844 -2.9529 
3.00926 -5.99267 -1.99778 
3.09323 6.03172 -1.96106 
3.04942 -5.94265 -0.916767 
3.0522 6.09197 -0.96053 
3.04179 -5.9139 0.0112613 
3.02288 6.09957 0.0752831 
3.01184 -5.95347 1.00302 
3.0944 6.03403 1.03554 
3.07812 -5.90577 2.00204 
3.07507 6.07763 2.07767 
3.00528 -5.9956 3.06141 
3.01353 6.06977 3.0554 
3.03301 -5.92686 4.02864 
3.09115 6.05098 4.03477 
3.08613 -5.9075 5.09446 
3.06918 6.09397 5.05702 
4.04251 -5.90091 -4.96934 
4.0491 6.06047 -4.90597 
4.0049 -5.92754 -3.98344 
4.02196 6.05028 -3.96765 
4.05368 -5.98426 -2.99846 
4.05459 6.08487 -2.96991 
4.01165 -5.99988 -1.96507 
4.00008 6.05486 -1.97142 
4.09176 -5.99236 -0.923432 
4.03836 6.02087 -0.919394 
4.08741 -5.9225 0.044789 
4.06442 6.05387 0.0915128 
4.06435 -5.93871 1.02499 
4.05703 6.09537 1.07138 
4.08584 -5.96527 2.01451 
4.09419 6.07409 2.07783 
4.01182 -5.98912 3.08064 
4.04403 6.09426 3.00254 
4.01977 -5.93625 4.02028 
4.0649 6.07607 4.03321 
4.06341 -5.9846 5.0954 
4.00769 6.04228 5.01777 
5.07671 -5.9244 -4.96055 
5.0407 6.0692 -4.91683 
5.00835 -5.93591 -3.95015 
5.02316 6.01823 -3.97159 
5.0979 -5.99673 -2.93788 
5.05274 6.0981 -2.96663 
5.04142 -5.94288 -1.99443 
5.01525 6.03979 -1.98562 
5.00524 -5.97814 -0.969771 
5.0856 6.05963 -0.973473 
5.09226 -5.9417 0.0334056 
5.07891 6.00256 0.0735954 
5.01036 -5.99193 1.06357 
5.04356 6.05995 1.05249 
5.09788 -5.93328 2.00206 
5.0343 6.00757 2.04203 
5.09036 -5.98919 3.08209 
5.01869 6.07104 3.0586 
5.0277 -5.99572 4.06145 
5.06328 6.06155 4.0561 
5.06451 -5.94525 5.08386 
5.03254 6.09591 5.05713 
10 -5 0 
10 -4 0 
10 -3 0 
10 -2 0 
10 -1 0 
10 0 0 
10 1 0 
10 2 0 
10 3 0 
10 4 0 
10 5 0 
10 6 0 
10 7 0 
10 8 0 
10 9 0 
10 10 0 
0 3 0 
0 4 0 
0 5 0 
0 7 0 
0 8 0 
0 9 0 
0 10 0 
1 -9 0 
1 -8 0 
1 -7 0 
1 -5 0 
1 -4 0 
1 -3 0 
1 -2 0 
1 -1 0 
1 0 0 
1 1 0 
1 2 0 
1 3 0 
1 4 0 
1 5 0 
1 7 0 
1 8 0 
1 9 0 
1 10 0 
2 -9 0 
2 -8 0 
2 -7 0 
2 -5 0 
2 -4 0 
2 -3 0 
2 -2 0 
2 -1 0 
2 0 0 
2 1 0 
2 2 0 
2 3 0 
2 4 0 
2 5 0 
2 7 0 
2 8 0 
2 9 0 
2 10 0 
3 -9 0 
3 -8 0 
3 -7 0 
3 -5 0 
3 -4 0 
3 -3 0 
3 -2 0 
3 -1 0 
3 0 0 
3 1 0 
3 2 0 
3 3 0 
3 4 0 
3 5 0 
3 7 0 
3 8 0 
3 9 0 
3 10 0 
4 -9 0 
4 -8 0 
4 -7 0 
4 -5 0 
4 -4 0 
4 -3 0 
4 -2 0 
4 -1 0 
4 0 0 
4 1 0 
4 2 0 
4 3 0 
4 4 0 
4 5 0 
4 7 0 
4 8 0 
4 9 0 
4 10 0 
5 -9 0 
5 -8 0 
5 -7 0 
5 -5 0 
5 -4 0 
5 -3 0 
5 -2 0 
5 -1 0 
5 0 0 
5 1 0 
5 2 0 
5 3 0 
5 4 0 
5 5 0 
5 7 0 
5 8 0 
5 9 0 
5 10 0 
6 -9 0 
6 -8 0 
6 -7 0 
6 7 0 
6 8 0 
6 9 0 
6 10 0 
-3 -1 0 
-3 0 0 
-3 1 0 
-3 2 0 
-3 3 0 
-3 4 0 
-3 5 0 
-3 7 0 
-3 8 0 
-3 9 0 
-3 10 0 
-2 -9 0 
-2 -8 0 
-2 -7 0 
-2 -5 0 
-2 -4 0 
-2 -3 0 
-2 -2 0 
-2 -1 0 
-2 0 0 
-2 1 0 
-2 2 0 
-2 3 0 
-2 4 0 
-2 5 0 
-2 7 0 
-2 8 0 
-2 9 0 
-2 10 0 
-1 -9 0 
-1 -8 0 
-1 -7 0 
-1 -5 0 
-1 -4 0 
-1 -3 0 
-1 -2 0 
-1 -1 0 
-1 0 0 
-1 1 0 
-1 2 0 
-1 3 0 
-1 4 0 
-1 5 0 
-1 7 0 
-1 8 0 
-1 9 0 
-1 10 0 
0 -9 0 
0 -8 0 
0 -7 0 
0 -5 0 
0 -4 0 
0 -3 0 
0 -2 0 
0 -1 0 
0 0 0 
0 1 0 
0 2 0 
-9 -9 0 
-9 -8 0 
-9 -7 0 
-9 -6 0 
-9 -5 0 
-9 -4 0 
-9 -3 0 
-9 -2 0 
-9 -1 0 
-9 0 0 
-9 1 0 
-9 2 0 
-9 3 0 
-9 4 0 
-9 5 0 
-9 6 0 
-9 7 0 
-9 8 0 
-9 9 0 
-9 10 0 
-8 -9 0 
-8 -8 0 
-8 -7 0 
-8 -6 0 
-8 -5 0 
-8 -4 0 
-8 -3 0 
-8 -2 0 
-8 -1 0 
-8 0 0 
-8 1 0 
-8 2 0 
-8 3 0 
-8 4 0 
-8 5 0 
-8 6 0 
-8 7 0 
-8 8 0 
-8 9 0 
-8 10 0 
-7 -9 0 
-7 -8 0 
-7 -7 0 
-7 -6 0 
-7 -5 0 
-7 -4 0 
-7 -3 0 
-7 -2 0 
-7 -1 0 
-7 0 0 
-7 1 0 
-7 2 0 
-7 3 0 
-7 4 0 
-7 5 0 
-7 6 0 
-7 7 0 
-7 8 0 
-7 9 0 
-7 10 0 
-6 -9 0 
-6 -8 0 
-6 -7 0 
7 -9 0 
7 -8 0 
7 -7 0 
7 -6 0 
7 -5 0 
7 -4 0 
7 -3 0 
7 -2 0 
7 -1 0 
7 0 0 
7 1 0 
7 2 0 
7 3 0 
7 4 0 
7 5 0 
7 6 0 
7 7 0 
7 8 0 
7 9 0 
7 10 0 
8 -9 0 
8 -8 0 
8 -7 0 
8 -6 0 
8 -5 0 
8 -4 0 
8 -3 0 
8 -2 0 
8 -1 0 
8 0 0 
8 1 0 
8 2 0 
8 3 0 
8 4 0 
8 5 0 
8 6 0 
8 7 0 
8 8 0 
8 9 0 
8 10 0 
9 -9 0 
9 -8 0 
9 -7 0 
9 -6 0 
9 -5 0 
9 -4 0 
9 -3 0 
9 -2 0 
9 -1 0 
9 0 0 
9 1 0 
9 2 0 
9 3 0 
9 4 0 
9 5 0 
9 6 0 
9 7 0 
9 8 0 
9 9 0 
9 10 0 
10 -9 0 
10 -8 0 
10 -7 0 
10 -6 0 
-6 7 0 
-6 8 0 
-6 9 0 
-6 10 0 
-5 -9 0 
-5 -8 0 
-5 -7 0 
-5 -5 0 
-5 -4 0 
-5 -3 0 
-5 -2 0 
-5 -1 0 
-5 0 0 
-5 1 0 
-5 2 0 
-5 3 0 
-5 4 0 
-5 5 0 
-5 7 0 
-5 8 0 
-5 9 0 
-5 10 0 
-4 -9 0 
-4 -8 0 
-4 -7 0 
-4 -5 0 
-4 -4 0 
-4 -3 0 
-4 -2 0 
-4 -1 0 
-4 0 0 
-4 1 0 
-4 2 0 
-4 3 0 
-4 4 0 
-4 5 0 
-4 7 0 
-4 8 0 
-4 9 0 
-4 10 0 
-3 -9 0 
-3 -8 0 
-3 -7 0 
-3 -5 0 
-3 -4 0 
-3 -3 0 
-3 -2 0 
